<?xml version="1.0" standalone="no"?>
<!DOCTYPE svg PUBLIC "-//W3C//DTD SVG 20010904//EN"
 "http://www.w3.org/TR/2001/REC-SVG-20010904/DTD/svg10.dtd">
<svg version="1.0" xmlns="http://www.w3.org/2000/svg"
 width="360.000000pt" height="358.000000pt" viewBox="0 0 360.000000 358.000000"
 preserveAspectRatio="xMidYMid meet">

<g transform="translate(0.000000,358.000000) scale(0.100000,-0.100000)"
fill="#000000" stroke="none">
<path d="M1013 3332 c-10 -6 646 -6 1072 1 94 1 -107 3 -445 5 -338 1 -620 -2
-627 -6z"/>
<path d="M963 3298 c-41 -46 -43 -58 -43 -342 l0 -275 -392 -3 c-374 -3 -395
-4 -428 -23 -19 -12 -43 -36 -55 -55 -20 -34 -20 -48 -20 -815 0 -767 0 -781
20 -815 12 -19 36 -43 55 -55 33 -19 53 -20 425 -22 l390 -3 5 -287 c5 -261 7
-291 24 -316 41 -60 -38 -57 1315 -57 l1239 0 32 26 c64 55 60 -26 58 1196 -2
612 -4 939 -5 726 l-3 -388 -660 0 -660 0 -2 388 -3 387 -115 3 -116 3 4 34
c6 52 -5 97 -32 127 -49 58 -51 58 -581 58 l-485 0 0 221 c0 227 2 242 43 287
11 12 18 22 15 22 -2 0 -14 -10 -25 -22z m-142 -1164 l108 -211 114 211 115
211 121 3 c72 1 121 -1 121 -7 0 -5 -75 -131 -166 -280 l-166 -271 37 -59 c20
-33 97 -158 171 -277 73 -120 134 -221 134 -226 0 -4 -58 -8 -128 -8 l-128 0
-118 221 -118 220 -121 -220 -121 -221 -128 0 c-73 0 -128 4 -128 9 0 6 79
132 176 281 96 150 173 278 170 286 -3 7 -75 131 -161 275 -85 143 -155 265
-155 270 0 6 54 8 132 7 l131 -3 108 -211z"/>
</g>
</svg>
