<?xml version="1.0" standalone="no"?>
<!DOCTYPE svg PUBLIC "-//W3C//DTD SVG 20010904//EN"
 "http://www.w3.org/TR/2001/REC-SVG-20010904/DTD/svg10.dtd">
<svg version="1.0" xmlns="http://www.w3.org/2000/svg"
 width="2203.000000pt" height="2050.000000pt" viewBox="0 0 2203.000000 2050.000000"
 preserveAspectRatio="xMidYMid meet">

<g transform="translate(0.000000,2050.000000) scale(0.100000,-0.100000)"
fill="#000000" stroke="none">
<path d="M5130 16145 l0 -255 -2077 0 c-1291 0 -2120 -4 -2190 -10 -254 -23
-484 -141 -643 -332 -76 -92 -162 -263 -192 -383 l-23 -90 0 -4820 c0 -4441 1
-4826 16 -4890 70 -295 265 -537 532 -660 40 -18 110 -43 157 -56 l85 -24
2163 -3 2162 -2 1 -613 c1 -336 5 -1204 8 -1927 7 -1288 8 -1316 28 -1380 67
-214 179 -378 343 -502 83 -64 222 -131 330 -160 l85 -23 7660 0 7660 0 85 23
c309 82 556 310 658 607 50 147 47 -135 47 4900 l0 4710 -4092 3 -4093 2 -2
2558 -3 2557 -766 3 -766 2 -6 103 c-11 190 -57 340 -148 481 -124 194 -307
331 -536 403 l-88 28 -3197 3 -3198 2 0 -255z m-387 -3250 c593 -1170 878
-1740 917 -1830 23 -55 45 -103 49 -107 3 -4 45 75 92 175 74 160 1144 2132
1173 2165 9 9 153 12 678 10 l667 -3 -921 -1500 c-567 -923 -922 -1510 -922
-1525 0 -16 340 -576 942 -1548 518 -837 942 -1524 942 -1527 0 -3 -320 -4
-712 -3 l-711 3 -62 115 c-128 237 -1090 2038 -1130 2115 -23 44 -51 104 -63
134 -14 33 -26 51 -31 45 -5 -5 -21 -38 -35 -73 -14 -34 -60 -127 -103 -204
-43 -78 -323 -589 -623 -1137 l-545 -995 -718 -3 c-394 -1 -717 0 -717 2 0 2
443 691 985 1531 542 839 984 1529 982 1533 -3 4 -408 687 -902 1517 -494 831
-899 1513 -902 1518 -2 4 326 6 729 5 l733 -3 208 -410z"/>
</g>
</svg>
