<?xml version="1.0" standalone="no"?>
<!DOCTYPE svg PUBLIC "-//W3C//DTD SVG 20010904//EN"
 "http://www.w3.org/TR/2001/REC-SVG-20010904/DTD/svg10.dtd">
<svg version="1.0" xmlns="http://www.w3.org/2000/svg"
 width="262.000000pt" height="192.000000pt" viewBox="0 0 262.000000 192.000000"
 preserveAspectRatio="xMidYMid meet">

<g transform="translate(0.000000,192.000000) scale(0.100000,-0.100000)"
fill="#000000" stroke="none">
<path d="M1399 1413 c6 -12 20 -25 31 -28 11 -4 18 -10 15 -15 -3 -4 5 -6 17
-2 14 3 19 1 14 -6 -9 -15 11 -52 28 -52 8 0 19 -7 26 -15 9 -10 9 -15 1 -15
-6 0 -11 -3 -11 -7 0 -10 81 -49 93 -45 5 1 7 -8 4 -20 -3 -13 -7 -134 -8
-269 l-1 -246 -34 7 c-18 4 -36 5 -40 1 -4 -3 -5 -1 -2 4 8 14 -141 10 -155
-4 -8 -8 -4 -11 13 -12 24 -1 24 -1 -2 -9 -16 -5 -40 -5 -55 0 -27 8 -27 8 -3
9 18 1 21 4 12 13 -15 15 -182 20 -255 7 -28 -4 -68 -11 -87 -13 l-35 -5 38
10 c20 6 37 14 37 18 0 8 4 8 200 10 74 1 168 -1 208 -5 54 -5 72 -3 72 6 0 8
13 11 40 8 38 -3 40 -2 40 24 0 24 -4 27 -42 31 l-43 4 43 1 42 2 0 65 c0 37
-4 65 -10 65 -5 0 -10 7 -10 15 0 8 5 15 10 15 6 0 10 14 10 31 0 37 -24 35
-26 -2 -2 -41 -3 -43 -24 -24 -35 32 -50 28 -50 -13 l0 -37 -187 1 -188 0 180
-5 c122 -4 167 -8 140 -13 -22 -4 -102 -6 -177 -5 -76 2 -138 0 -138 -5 0 -4
64 -8 141 -8 l141 0 -4 -30 c-3 -19 0 -31 10 -35 22 -8 34 -6 27 6 -4 6 3 5
14 -3 22 -13 22 -13 1 -16 -11 -2 -20 -7 -20 -11 0 -4 -14 -5 -31 -3 -24 4
-30 9 -26 23 5 18 -3 19 -129 19 l-134 0 -1 43 c-1 23 0 52 1 65 1 14 -4 22
-14 22 -12 0 -16 -10 -16 -40 0 -29 -4 -40 -15 -40 -11 0 -15 -11 -15 -40 0
-27 -4 -40 -14 -40 -8 0 -13 -8 -12 -17 0 -10 -5 -18 -11 -17 -7 1 -22 2 -33
3 -11 0 -20 6 -20 12 0 7 10 9 28 5 20 -5 23 -4 12 4 -23 15 -48 12 -52 -7 -2
-9 -4 125 -6 298 -2 172 -5 315 -8 318 -6 7 -5 -685 2 -703 4 -10 18 -16 40
-16 21 0 37 -6 40 -14 4 -11 50 -14 247 -15 135 -1 257 3 276 9 25 7 37 6 42
-1 9 -15 45 -3 69 24 19 20 20 37 20 364 l0 343 -122 0 c-112 0 -124 2 -146
23 l-25 22 12 -22z m263 -458 c2 -191 0 -244 -9 -241 -8 4 -12 -3 -10 -17 1
-17 -4 -22 -23 -24 l-25 -3 25 11 c14 6 20 13 14 15 -7 3 -8 22 -3 57 4 28 8
141 8 250 1 119 5 197 11 197 6 0 10 -96 12 -245z m-102 -55 c0 -4 -7 -13 -15
-20 -8 -7 -12 -16 -9 -21 8 -13 -20 -11 -33 2 -8 8 -8 19 0 39 9 25 13 27 34
17 13 -5 23 -13 23 -17z m-87 -17 c-7 -2 -19 -2 -25 0 -7 3 -2 5 12 5 14 0 19
-2 13 -5z m-155 -80 c2 -8 -6 -13 -22 -13 -17 0 -26 5 -26 16 0 19 41 16 48
-3z m-319 -87 c-12 -10 -49 -16 -49 -7 0 5 10 11 23 13 22 4 34 1 26 -6z m504
-33 c-13 -2 -33 -2 -45 0 -13 2 -3 4 22 4 25 0 35 -2 23 -4z"/>
<path d="M1577 1207 c-3 -8 1 -23 8 -34 14 -17 14 -17 15 2 0 11 -4 26 -9 33
-7 11 -9 11 -14 -1z"/>
<path d="M1470 1189 c0 -6 -7 -9 -15 -5 -8 3 -15 1 -15 -5 0 -6 -56 -9 -160
-7 -88 2 -160 -1 -160 -5 0 -4 85 -7 189 -6 104 1 194 -2 200 -5 6 -4 11 -2
11 4 0 7 -9 14 -21 17 -16 4 -17 8 -7 14 10 7 9 9 -4 9 -10 0 -18 -5 -18 -11z"/>
<path d="M1520 1114 c0 -5 -85 -8 -202 -7 -112 0 -195 -1 -185 -4 9 -2 17 -8
17 -13 0 -5 -8 -11 -17 -13 -10 -3 69 -5 175 -6 185 -1 192 -2 192 -21 0 -11
5 -20 12 -20 22 0 -2 -13 -39 -21 -32 -6 -29 -7 17 -4 30 2 56 4 58 5 1 0 2 5
2 10 0 19 -52 60 -76 60 -13 0 -24 5 -24 11 0 8 12 10 35 6 32 -5 55 6 41 20
-3 4 -6 2 -6 -3z m-82 -19 c-9 -9 -278 -11 -278 -3 0 4 64 8 142 8 78 0 139
-2 136 -5z"/>
<path d="M1581 1100 c-13 -7 -13 -13 -1 -37 13 -27 14 -27 18 -5 6 36 -1 53
-17 42z"/>
<path d="M1298 1003 c12 -2 32 -2 45 0 12 2 2 4 -23 4 -25 0 -35 -2 -22 -4z"/>
<path d="M1268 983 c39 -2 105 -2 145 0 39 1 7 3 -73 3 -80 0 -112 -2 -72 -3z"/>
<path d="M980 666 c0 -2 7 -7 16 -10 8 -3 12 -2 9 4 -6 10 -25 14 -25 6z"/>
<path d="M650 440 c-41 -42 -41 -91 -1 -131 33 -33 93 -40 127 -14 10 8 15 15
11 15 -5 0 -1 7 7 16 9 8 16 24 16 35 0 16 -7 19 -45 19 -25 0 -45 -4 -45 -10
0 -5 16 -10 35 -10 38 0 41 -4 22 -36 -9 -16 -21 -21 -56 -20 -57 1 -87 36
-77 89 8 41 45 61 100 54 37 -5 49 6 20 17 -40 15 -85 6 -114 -24z"/>
<path d="M1260 375 c0 -57 4 -95 10 -95 6 0 10 38 10 95 0 57 -4 95 -10 95 -6
0 -10 -38 -10 -95z"/>
<path d="M1480 365 l0 -85 35 0 c47 0 91 23 99 52 19 72 -16 118 -89 118 l-45
0 0 -85z m107 48 c18 -24 16 -78 -3 -97 -8 -9 -31 -16 -50 -16 l-34 0 0 71 0
72 37 -6 c21 -4 44 -14 50 -24z"/>
<path d="M846 384 c-20 -20 -20 -68 0 -88 36 -37 104 -7 104 46 0 49 -69 78
-104 42z m72 -16 c18 -18 14 -45 -9 -62 -28 -19 -47 -11 -57 28 -7 24 -5 32 7
38 25 10 46 9 59 -4z"/>
<path d="M986 378 c-43 -61 18 -123 85 -88 24 13 26 72 3 94 -23 24 -70 20
-88 -6z m68 -4 c10 -4 16 -18 16 -35 0 -40 -36 -56 -64 -28 -17 15 -18 22 -8
44 12 25 27 30 56 19z"/>
<path d="M1135 386 c-22 -16 -25 -67 -5 -91 9 -11 25 -15 47 -13 29 4 33 1 31
-16 -3 -24 -42 -34 -62 -17 -7 6 -16 8 -19 4 -10 -9 25 -32 48 -32 43 0 55 21
55 103 0 44 -4 76 -10 76 -5 0 -10 -6 -11 -12 0 -7 -1 -29 -2 -48 -2 -29 -6
-36 -26 -38 -53 -8 -62 64 -10 75 16 3 29 9 29 14 0 14 -44 11 -65 -5z"/>
<path d="M1320 380 c-24 -24 -25 -48 -4 -78 12 -18 24 -22 52 -20 19 2 37 8
39 15 3 8 -6 10 -30 6 -52 -8 -57 15 -8 34 42 17 50 30 29 51 -18 18 -56 14
-78 -8z m64 -9 c3 -4 -6 -13 -20 -20 -37 -16 -46 -14 -34 9 11 20 44 27 54 11z"/>
<path d="M1660 380 c-11 -11 -20 -31 -20 -43 0 -50 70 -76 103 -39 52 58 -28
137 -83 82z m78 -42 c-6 -63 -70 -63 -76 1 -3 25 1 33 20 40 36 13 60 -4 56
-41z"/>
<path d="M1802 384 c-42 -29 -18 -104 34 -104 11 0 29 7 40 15 23 18 11 20
-16 3 -15 -10 -25 -10 -38 -2 -23 15 -28 65 -7 80 17 13 55 8 55 -8 0 -5 5 -6
12 -2 7 5 5 11 -7 21 -25 17 -45 17 -73 -3z"/>
<path d="M1920 385 c-18 -22 -6 -42 29 -50 22 -5 31 -12 31 -26 0 -20 -34 -27
-45 -9 -3 6 -11 10 -17 10 -6 0 -6 -6 2 -16 8 -9 25 -14 44 -12 26 2 31 7 31
28 0 20 -7 27 -32 35 -34 9 -43 29 -20 38 8 3 20 1 28 -4 22 -14 33 -11 19 6
-16 19 -54 19 -70 0z"/>
</g>
</svg>
