<?xml version="1.0" standalone="no"?>
<!DOCTYPE svg PUBLIC "-//W3C//DTD SVG 20010904//EN"
 "http://www.w3.org/TR/2001/REC-SVG-20010904/DTD/svg10.dtd">
<svg version="1.0" xmlns="http://www.w3.org/2000/svg"
 width="600.000000pt" height="300.000000pt" viewBox="0 0 600.000000 300.000000"
 preserveAspectRatio="xMidYMid meet">

<g transform="translate(0.000000,300.000000) scale(0.100000,-0.100000)"
fill="#000000" stroke="none">
<path d="M1500 1500 l0 -1500 1500 0 1500 0 0 1500 0 1500 -1500 0 -1500 0 0
-1500z m1838 1203 c-3 -10 -115 -402 -249 -870 l-243 -853 -128 0 c-70 0 -128
3 -128 7 0 4 111 395 247 870 l246 863 130 0 c118 0 129 -1 125 -17z m-875
-225 c-5 -7 -118 -149 -251 -315 l-241 -301 250 -312 c137 -171 249 -314 249
-316 0 -3 -57 -3 -127 -2 l-127 3 -248 310 c-137 170 -247 314 -246 320 2 6
113 149 248 318 l245 306 129 1 c101 0 126 -3 119 -12z m1498 -290 c133 -167
246 -309 252 -315 6 -9 -63 -103 -243 -328 l-252 -315 -124 0 c-68 0 -124 3
-124 8 0 4 111 146 246 315 l245 307 -64 83 c-35 45 -146 183 -245 307 -100
124 -182 228 -182 233 0 4 56 7 125 7 l125 0 241 -302z m-1598 -1525 c3 -10
27 -87 53 -171 l48 -152 48 152 c26 84 48 161 48 171 0 14 10 17 58 17 l59 0
-80 -220 -80 -221 -55 3 -54 3 -79 215 c-43 118 -79 216 -79 218 0 1 24 2 54
2 44 0 56 -4 59 -17z m447 -68 l0 -85 96 0 97 0 -5 85 -4 85 48 0 48 0 0 -221
0 -220 -47 3 -48 3 4 93 3 92 -96 0 -95 0 -3 -92 -3 -93 -45 0 -45 0 -3 218
-2 217 50 0 50 0 0 -85z m623 71 c36 -15 83 -65 99 -105 18 -46 13 -163 -10
-207 -44 -86 -84 -104 -244 -111 l-118 -6 0 222 0 221 120 0 c79 0 132 -5 153
-14z m259 -161 l-4 -175 111 0 111 0 0 -45 0 -46 -155 3 -156 3 -2 218 -2 217
50 0 50 0 -3 -175z"/>
<path d="M3260 465 l0 -137 66 4 c57 4 70 8 90 31 45 52 41 169 -6 212 -15 13
-41 20 -86 23 l-64 4 0 -137z"/>
</g>
</svg>
