<?xml version="1.0" standalone="no"?>
<!DOCTYPE svg PUBLIC "-//W3C//DTD SVG 20010904//EN"
 "http://www.w3.org/TR/2001/REC-SVG-20010904/DTD/svg10.dtd">
<svg version="1.0" xmlns="http://www.w3.org/2000/svg"
 width="307.000000pt" height="100.000000pt" viewBox="0 0 307.000000 100.000000"
 preserveAspectRatio="xMidYMid meet">

<g transform="translate(0.000000,100.000000) scale(0.100000,-0.100000)"
fill="#000000" stroke="none">
<path d="M2591 707 c-8 -10 -7 -14 2 -14 8 0 14 6 14 14 0 7 -1 13 -2 13 -2 0
-8 -6 -14 -13z"/>
<path d="M2527 652 c-15 -15 -27 -32 -27 -36 0 -5 9 3 21 18 11 14 24 24 28
22 4 -3 8 1 8 9 0 19 1 20 -30 -13z"/>
<path d="M2603 645 c0 -22 2 -30 4 -17 2 12 2 30 0 40 -3 9 -5 -1 -4 -23z"/>
<path d="M2106 588 c-67 -9 -124 -51 -155 -113 -21 -39 -27 -67 -29 -135 -4
-102 7 -152 48 -208 51 -71 143 -102 241 -81 131 28 201 176 165 349 -30 142
-127 210 -270 188z m136 -54 c56 -29 98 -123 98 -218 0 -104 -38 -177 -110
-213 -91 -46 -181 -17 -234 77 -28 50 -31 63 -31 140 1 95 18 142 73 194 49
46 136 55 204 20z"/>
<path d="M2603 550 c0 -30 2 -43 4 -27 2 15 2 39 0 55 -2 15 -4 2 -4 -28z"/>
<path d="M540 319 c0 -252 1 -270 18 -267 16 3 17 25 20 271 2 262 2 267 -18
267 -20 0 -20 -6 -20 -271z"/>
<path d="M64 558 c3 -12 45 -131 94 -263 76 -209 90 -240 110 -243 27 -4 24
-10 116 248 37 102 75 206 86 233 l19 47 -23 0 c-19 0 -26 -11 -45 -67 -100
-292 -144 -413 -149 -408 -4 3 -43 110 -88 238 -71 203 -85 232 -104 235 -19
3 -22 0 -16 -20z"/>
<path d="M634 563 c3 -10 46 -128 95 -262 81 -224 91 -245 113 -248 24 -3 28
5 93 184 37 104 80 223 96 266 l28 77 -24 0 c-14 0 -25 -5 -25 -10 0 -15 -152
-453 -160 -463 -7 -8 -25 38 -128 333 -41 117 -50 135 -70 138 -19 3 -23 0
-18 -15z"/>
<path d="M1150 558 c-5 -13 -51 -126 -101 -253 -50 -126 -93 -236 -96 -243 -4
-10 1 -13 18 -10 19 2 28 17 50 73 l26 70 138 0 138 0 26 -70 c22 -57 31 -70
50 -71 16 -1 21 3 16 15 -3 9 -50 127 -103 263 -94 240 -98 248 -125 248 -19
0 -30 -7 -37 -22z m96 -165 c30 -76 54 -141 54 -145 0 -5 -52 -8 -115 -8 -63
0 -115 3 -115 7 0 18 113 294 117 289 3 -3 30 -68 59 -143z"/>
<path d="M1462 319 l3 -264 105 1 c114 0 167 13 218 51 47 35 69 76 83 154 22
125 -24 244 -114 291 -35 19 -62 23 -170 26 l-127 4 2 -263z m243 207 c83 -35
124 -102 125 -200 0 -164 -84 -242 -255 -234 l-66 3 0 223 c0 122 1 225 1 228
0 13 156 -4 195 -20z"/>
<path d="M2453 495 c0 -38 2 -53 4 -32 2 20 2 52 0 70 -2 17 -4 1 -4 -38z"/>
<path d="M2550 470 c-9 -6 -10 -10 -3 -10 6 0 15 5 18 10 8 12 4 12 -15 0z"/>
<path d="M2505 425 c-20 -16 -33 -21 -41 -14 -8 7 -11 3 -11 -15 0 -22 1 -23
20 -7 50 41 72 60 66 61 -3 0 -19 -11 -34 -25z"/>
</g>
</svg>
