<?xml version="1.0" standalone="no"?>
<!DOCTYPE svg PUBLIC "-//W3C//DTD SVG 20010904//EN"
 "http://www.w3.org/TR/2001/REC-SVG-20010904/DTD/svg10.dtd">
<svg version="1.0" xmlns="http://www.w3.org/2000/svg"
 width="500.000000pt" height="375.000000pt" viewBox="0 0 500.000000 375.000000"
 preserveAspectRatio="xMidYMid meet">

<g transform="translate(0.000000,375.000000) scale(0.100000,-0.100000)"
fill="#000000" stroke="none">
<path d="M3320 2576 c0 -1 44 -46 98 -99 l97 -97 153 0 152 0 0 -152 0 -153
97 -97 c53 -54 98 -98 99 -98 2 0 4 158 4 350 l0 350 -350 0 c-192 0 -350 -2
-350 -4z"/>
<path d="M1261 2478 c-58 -138 -221 -549 -221 -558 0 -6 33 -10 78 -10 l78 0
25 63 24 62 136 3 135 3 26 -63 26 -63 81 -3 c61 -2 81 0 80 10 0 7 -60 146
-133 308 l-132 295 -90 3 -91 3 -22 -53z m163 -216 c25 -62 46 -115 46 -117 0
-3 -40 -5 -90 -5 -49 0 -90 3 -90 8 0 10 83 233 85 230 2 -2 24 -54 49 -116z"/>
<path d="M1810 2230 c0 -165 -1 -303 -2 -307 -2 -5 32 -9 74 -11 l78 -3 2 192
3 191 83 -96 c46 -53 86 -96 91 -96 4 0 43 42 87 94 43 52 82 95 87 95 4 1 7
-84 7 -189 l0 -190 75 0 75 0 0 310 0 310 -68 0 -69 0 -94 -110 c-52 -60 -97
-110 -100 -110 -4 0 -49 49 -100 109 l-94 110 -67 0 -68 1 0 -300z"/>
<path d="M2590 2219 l0 -311 178 5 c199 5 255 17 324 70 24 18 56 57 73 87 27
50 30 63 30 150 0 84 -3 101 -27 146 -37 70 -98 120 -176 144 -53 17 -93 20
-233 20 l-169 0 0 -311z m315 190 c57 -16 95 -46 116 -93 35 -78 21 -181 -33
-233 -45 -43 -76 -53 -169 -53 l-79 0 0 195 0 195 63 0 c34 0 80 -5 102 -11z"/>
<path d="M3402 2247 l-92 -92 0 -143 0 -142 143 0 142 0 93 93 c50 51 92 96
92 100 0 4 -61 7 -135 7 l-135 0 0 135 c0 74 -3 135 -8 135 -4 0 -49 -42 -100
-93z"/>
<path d="M1040 1601 c0 -6 44 -105 97 -221 92 -200 98 -210 124 -210 15 0 31
6 36 13 15 23 193 411 193 419 0 5 -14 8 -32 6 -32 -3 -35 -8 -112 -175 -44
-95 -82 -171 -84 -168 -2 2 -39 80 -81 172 -75 162 -78 168 -109 171 -18 2
-32 -1 -32 -7z"/>
<path d="M2685 1600 c-3 -6 -5 -34 -4 -63 l3 -52 -103 -5 c-136 -7 -141 -12
-141 -155 0 -103 0 -103 31 -129 30 -26 34 -27 153 -24 l121 3 0 215 0 215
-27 3 c-14 2 -29 -2 -33 -8z m-3 -270 l3 -91 -90 3 -90 3 -3 74 c-2 41 -1 80
2 88 4 9 28 13 90 13 l85 0 3 -90z"/>
<path d="M1540 1560 c0 -27 3 -30 30 -30 27 0 30 3 30 30 0 27 -3 30 -30 30
-27 0 -30 -3 -30 -30z"/>
<path d="M1540 1325 l0 -155 30 0 30 0 0 155 0 155 -30 0 -30 0 0 -155z"/>
<path d="M1660 1477 c0 -2 31 -71 69 -153 68 -147 69 -149 101 -149 32 0 33 2
101 149 38 82 69 151 69 153 0 1 -15 3 -34 3 -33 0 -34 -2 -82 -110 -27 -60
-51 -110 -54 -110 -3 0 -27 50 -54 110 -48 108 -49 110 -82 110 -19 0 -34 -2
-34 -3z"/>
<path d="M2070 1450 l0 -29 108 -3 107 -3 3 -48 3 -48 -20 20 c-18 18 -34 21
-97 21 -71 0 -77 -2 -106 -30 -27 -27 -30 -36 -25 -72 9 -65 34 -82 126 -86
71 -4 80 -2 100 19 l21 23 0 -22 c0 -18 6 -22 30 -22 l30 0 0 130 c0 126 -1
132 -25 155 -23 24 -30 25 -140 25 l-115 0 0 -30z m218 -182 l3 -28 -90 0
c-89 0 -91 1 -91 23 0 13 3 27 7 31 4 4 43 5 88 4 79 -3 80 -3 83 -30z"/>
<path d="M2860 1455 c-20 -21 -24 -38 -28 -104 -8 -149 20 -181 158 -181 138
0 166 33 158 181 -4 65 -9 84 -28 104 -22 24 -29 25 -130 25 -101 0 -108 -1
-130 -25z m218 -127 l3 -88 -91 0 -90 0 0 83 c0 46 3 87 7 91 4 4 43 5 88 4
l80 -3 3 -87z"/>
</g>
</svg>
