<?xml version="1.0" standalone="no"?>
<!DOCTYPE svg PUBLIC "-//W3C//DTD SVG 20010904//EN"
 "http://www.w3.org/TR/2001/REC-SVG-20010904/DTD/svg10.dtd">
<svg version="1.0" xmlns="http://www.w3.org/2000/svg"
 width="280.000000pt" height="280.000000pt" viewBox="0 0 280.000000 280.000000"
 preserveAspectRatio="xMidYMid meet">

<g transform="translate(0.000000,280.000000) scale(0.100000,-0.100000)"
fill="#000000" stroke="none">
<path d="M705 2748 c-3 -8 -4 -95 -3 -193 3 -152 5 -180 18 -180 13 0 15 28
15 189 0 143 -3 190 -12 193 -7 3 -15 -1 -18 -9z"/>
<path d="M1045 2748 c-3 -8 -4 -95 -3 -193 3 -152 5 -180 18 -180 13 0 15 28
15 189 0 143 -3 190 -12 193 -7 3 -15 -1 -18 -9z"/>
<path d="M1395 2749 c-10 -26 -1 -374 10 -372 14 4 19 363 6 376 -7 7 -12 5
-16 -4z"/>
<path d="M1732 2748 c-18 -18 -17 -352 1 -367 30 -24 37 9 37 185 0 130 -3
174 -13 183 -10 8 -17 7 -25 -1z"/>
<path d="M2075 2748 c-3 -8 -4 -95 -3 -193 3 -152 5 -180 18 -180 13 0 15 28
15 189 0 143 -3 190 -12 193 -7 3 -15 -1 -18 -9z"/>
<path d="M608 2386 c-97 -26 -164 -93 -190 -191 -11 -42 -11 -46 10 -61 27
-19 28 -39 2 -61 -18 -16 -20 -30 -20 -143 0 -113 2 -127 20 -143 25 -21 25
-43 0 -59 -18 -12 -20 -24 -20 -139 0 -113 2 -128 20 -144 25 -23 25 -41 0
-57 -18 -12 -20 -24 -20 -139 0 -113 2 -128 20 -144 25 -23 25 -37 0 -60 -18
-16 -20 -31 -20 -144 0 -115 2 -127 20 -139 26 -16 25 -36 -1 -61 -18 -17 -20
-27 -15 -64 11 -71 63 -147 121 -179 66 -36 130 -46 154 -24 22 20 45 20 61 1
18 -22 262 -22 280 0 16 19 59 19 66 0 9 -22 269 -22 278 0 7 19 55 19 62 0 9
-22 269 -22 278 0 7 19 55 19 62 0 5 -12 30 -15 139 -15 106 0 135 3 145 15
16 20 39 19 62 -2 16 -15 25 -15 64 -5 100 27 172 102 194 205 9 45 9 52 -10
69 -25 24 -25 44 0 60 18 12 20 24 20 139 0 113 -2 128 -20 144 -25 23 -25 37
0 60 18 16 20 31 20 144 0 115 -2 127 -20 139 -25 16 -25 34 0 57 18 16 20 31
20 144 0 115 -2 127 -20 139 -25 16 -25 38 0 59 18 16 20 30 20 143 0 113 -2
127 -20 143 -25 21 -25 42 -1 59 16 12 18 20 12 50 -26 114 -101 186 -223 212
-21 5 -28 3 -28 -8 0 -23 -36 -39 -60 -26 -11 6 -20 17 -20 25 0 12 -22 15
-126 15 -123 0 -127 -1 -146 -25 -11 -14 -26 -25 -33 -25 -7 0 -22 11 -33 25
-19 24 -24 25 -144 25 -118 0 -124 -1 -133 -22 -6 -13 -19 -23 -30 -23 -11 0
-24 10 -30 23 -9 21 -14 22 -142 22 -106 0 -133 -3 -133 -14 0 -39 -63 -44
-75 -5 -6 18 -16 19 -136 19 -107 0 -129 -3 -129 -15 0 -22 -36 -38 -60 -25
-11 6 -20 17 -20 25 0 18 -10 18 -72 1z m137 -261 l0 -90 -63 -3 c-38 -2 -69
2 -78 9 -18 15 -20 149 -2 167 8 8 36 12 78 10 l65 -3 0 -90z m360 0 l0 -90
-63 -3 c-38 -2 -69 2 -78 9 -18 15 -20 149 -2 167 8 8 36 12 78 10 l65 -3 0
-90z m360 0 l0 -90 -63 -3 c-38 -2 -69 2 -78 9 -18 15 -20 149 -2 167 8 8 36
12 78 10 l65 -3 0 -90z m353 83 c18 -18 16 -152 -2 -167 -9 -7 -40 -11 -78 -9
l-63 3 -3 79 c-2 44 -1 85 2 93 7 17 127 18 144 1z m367 -83 l0 -90 -75 0 -75
0 -3 79 c-2 44 -1 85 2 93 4 10 24 13 78 11 l73 -3 0 -90z m-1307 -78 l3 -87
159 0 159 0 3 88 c2 69 6 87 18 87 12 0 16 -18 18 -87 l3 -88 159 0 159 0 3
88 c2 49 7 87 13 87 6 0 11 -38 13 -87 l3 -88 164 0 164 0 3 88 c4 114 22 114
26 0 l3 -87 82 -3 c107 -4 107 -22 0 -26 l-83 -3 0 -164 0 -164 83 -3 c46 -2
82 -7 82 -13 0 -6 -36 -11 -82 -13 l-83 -3 0 -159 0 -159 83 -3 c65 -2 82 -6
82 -18 0 -12 -17 -16 -82 -18 l-83 -3 0 -159 0 -159 83 -3 c65 -2 82 -6 82
-18 0 -12 -17 -16 -82 -18 l-83 -3 0 -74 c0 -60 -3 -75 -15 -75 -12 0 -15 15
-15 75 l0 75 -165 0 -165 0 0 -75 c0 -60 -3 -75 -15 -75 -12 0 -15 15 -15 75
l0 75 -160 0 -159 0 -3 -72 c-2 -57 -6 -73 -18 -73 -12 0 -16 16 -18 73 l-3
72 -159 0 -159 0 -3 -72 c-2 -57 -6 -73 -18 -73 -12 0 -16 16 -18 72 l-3 72
-77 3 c-64 3 -77 6 -80 21 -3 15 6 17 77 17 l81 0 0 160 0 159 -77 3 c-61 2
-78 6 -78 18 0 12 17 16 78 18 l77 3 0 159 0 160 -80 0 c-64 0 -80 3 -80 15 0
12 16 15 80 15 l80 0 0 165 0 165 -80 0 c-64 0 -80 3 -80 15 0 12 16 15 80 15
l80 0 0 83 c0 46 3 87 7 91 19 19 28 -8 31 -87z m-130 -199 c18 -18 16 -152
-2 -167 -9 -7 -40 -11 -78 -9 l-63 3 -3 79 c-2 44 -1 85 2 93 7 17 127 18 144
1z m1440 0 c18 -18 16 -152 -2 -167 -9 -7 -40 -11 -78 -9 l-63 3 -3 79 c-2 44
-1 85 2 93 7 17 127 18 144 1z m-1443 -438 l0 -85 -63 -3 c-85 -4 -92 3 -92
93 0 39 3 75 7 79 4 4 39 5 78 4 l70 -3 0 -85z m1443 12 c4 -96 -3 -104 -87
-100 l-66 3 -3 74 c-2 41 -1 80 2 88 4 10 24 13 78 11 l73 -3 3 -73z m-1433
-372 l0 -85 -75 0 -75 0 -3 74 c-2 41 -1 80 2 88 4 10 24 13 78 11 l73 -3 0
-85z m1430 0 l0 -85 -75 0 -75 0 -3 74 c-2 41 -1 80 2 88 4 10 24 13 78 11
l73 -3 0 -85z m-1440 -365 l0 -90 -63 -3 c-38 -2 -69 2 -78 9 -18 15 -20 149
-2 167 8 8 36 12 78 10 l65 -3 0 -90z m353 83 c18 -18 16 -152 -2 -167 -9 -7
-40 -11 -78 -9 l-63 3 -3 79 c-2 44 -1 85 2 93 7 17 127 18 144 1z m360 0 c7
-7 12 -41 12 -83 0 -42 -5 -76 -12 -83 -16 -16 -120 -16 -136 0 -7 7 -12 41
-12 83 0 42 5 76 12 83 7 7 37 12 68 12 31 0 61 -5 68 -12z m360 0 c7 -7 12
-41 12 -83 0 -42 -5 -76 -12 -83 -16 -16 -130 -16 -146 0 -7 7 -12 41 -12 83
0 42 5 76 12 83 7 7 39 12 73 12 34 0 66 -5 73 -12z m360 0 c18 -18 16 -152
-2 -167 -9 -7 -40 -11 -78 -9 l-63 3 -3 79 c-2 44 -1 85 2 93 7 17 127 18 144
1z"/>
<path d="M880 1765 l0 -165 160 0 160 0 0 165 0 165 -160 0 -160 0 0 -165z
m228 83 c18 -18 16 -152 -2 -167 -9 -7 -40 -11 -78 -9 l-63 3 -3 79 c-2 44 -1
85 2 93 7 17 127 18 144 1z"/>
<path d="M1240 1765 l0 -165 160 0 160 0 0 165 0 165 -160 0 -160 0 0 -165z
m228 83 c18 -18 16 -152 -2 -167 -9 -7 -40 -11 -78 -9 l-63 3 -3 79 c-2 44 -1
85 2 93 7 17 127 18 144 1z"/>
<path d="M1590 1765 l0 -165 165 0 165 0 0 165 0 165 -165 0 -165 0 0 -165z
m235 0 l0 -90 -63 -3 c-38 -2 -69 2 -78 9 -18 15 -20 149 -2 167 8 8 36 12 78
10 l65 -3 0 -90z"/>
<path d="M970 1481 c0 -5 15 -49 34 -98 31 -80 37 -88 63 -91 26 -3 30 1 45
45 8 26 25 72 37 101 l21 53 -26 -3 c-22 -3 -30 -13 -49 -66 -13 -35 -25 -65
-27 -68 -3 -2 -16 27 -29 66 -20 59 -27 70 -46 70 -13 0 -23 -4 -23 -9z"/>
<path d="M1210 1390 c0 -92 1 -100 19 -100 17 0 20 8 23 48 l3 47 43 3 42 3 0
-50 c0 -48 2 -51 25 -51 l25 0 0 100 0 100 -25 0 c-22 0 -25 -4 -25 -35 0 -35
0 -35 -45 -35 -45 0 -45 0 -45 35 0 28 -4 35 -20 35 -19 0 -20 -7 -20 -100z"/>
<path d="M1450 1390 l0 -100 48 0 c92 0 151 54 138 125 -10 53 -47 75 -122 75
l-64 0 0 -100z m120 50 c42 -42 13 -110 -46 -110 l-34 0 0 65 0 65 30 0 c17 0
39 -9 50 -20z"/>
<path d="M1690 1390 l0 -100 70 0 c63 0 70 2 70 20 0 17 -7 20 -50 20 l-50 0
0 80 c0 73 -2 80 -20 80 -19 0 -20 -7 -20 -100z"/>
<path d="M880 1050 l0 -160 160 0 160 0 0 160 0 160 -160 0 -160 0 0 -160z
m225 0 l0 -85 -75 0 -75 0 -3 74 c-2 41 -1 80 2 88 4 10 24 13 78 11 l73 -3 0
-85z"/>
<path d="M1240 1050 l0 -160 160 0 160 0 0 160 0 160 -160 0 -160 0 0 -160z
m225 0 l0 -85 -70 0 -70 0 -3 74 c-2 41 -1 80 2 88 4 10 23 13 73 11 l68 -3 0
-85z"/>
<path d="M1590 1050 l0 -160 165 0 165 0 0 160 0 160 -165 0 -165 0 0 -160z
m235 0 l0 -85 -75 0 -75 0 -3 74 c-2 41 -1 80 2 88 4 10 24 13 78 11 l73 -3 0
-85z"/>
<path d="M45 2109 c-16 -25 18 -29 196 -27 156 3 184 5 184 18 0 13 -29 15
-187 18 -128 2 -189 -1 -193 -9z"/>
<path d="M2375 2109 c-16 -25 18 -29 196 -27 156 3 184 5 184 18 0 13 -29 15
-187 18 -128 2 -189 -1 -193 -9z"/>
<path d="M45 1769 c-16 -25 18 -29 196 -27 156 3 184 5 184 18 0 13 -29 15
-187 18 -128 2 -189 -1 -193 -9z"/>
<path d="M2375 1769 c-16 -25 18 -29 196 -27 156 3 184 5 184 18 0 13 -29 15
-187 18 -128 2 -189 -1 -193 -9z"/>
<path d="M51 1427 c-6 -8 -8 -17 -4 -20 8 -9 368 -9 376 0 4 3 2 12 -4 20 -16
19 -352 19 -368 0z"/>
<path d="M2381 1427 c-6 -8 -8 -17 -4 -20 8 -9 368 -9 376 0 4 3 2 12 -4 20
-16 19 -352 19 -368 0z"/>
<path d="M52 1088 c-8 -8 -9 -15 -1 -25 16 -19 352 -19 368 0 8 10 7 17 -1 25
-17 17 -349 17 -366 0z"/>
<path d="M2382 1088 c-8 -8 -9 -15 -1 -25 16 -19 352 -19 368 0 8 10 7 17 -1
25 -17 17 -349 17 -366 0z"/>
<path d="M45 739 c-16 -25 18 -29 196 -27 156 3 184 5 184 18 0 13 -29 15
-187 18 -128 2 -189 -1 -193 -9z"/>
<path d="M2375 739 c-16 -25 18 -29 196 -27 156 3 184 5 184 18 0 13 -29 15
-187 18 -128 2 -189 -1 -193 -9z"/>
<path d="M700 240 c0 -183 1 -190 20 -190 19 0 20 7 20 190 0 183 -1 190 -20
190 -19 0 -20 -7 -20 -190z"/>
<path d="M1044 417 c-2 -7 -3 -91 -2 -187 3 -157 5 -175 21 -178 16 -3 17 11
17 187 0 165 -2 191 -15 191 -9 0 -18 -6 -21 -13z"/>
<path d="M1390 240 c0 -162 2 -190 15 -190 13 0 15 28 15 190 0 162 -2 190
-15 190 -13 0 -15 -28 -15 -190z"/>
<path d="M1725 418 c-3 -8 -4 -92 -3 -188 3 -167 4 -175 23 -175 19 0 20 7 20
185 0 168 -2 185 -18 188 -9 2 -19 -3 -22 -10z"/>
<path d="M2070 240 c0 -183 1 -190 20 -190 19 0 20 7 20 190 0 183 -1 190 -20
190 -19 0 -20 -7 -20 -190z"/>
</g>
</svg>
